<svg width="307" height="45" viewBox="0 0 307 45" fill="none" xmlns="http://www.w3.org/2000/svg">
<path d="M20.6717 12.9501C16.8096 13.9277 13.4729 17.376 12.6397 21.2362C12.3125 22.8314 12.5127 25.714 13.0919 27.5094C14.3061 31.2618 18.1682 37.4985 21.8321 41.6511C23.3003 43.3176 23.4812 43.2829 25.4036 40.9256C29.4446 36.0302 32.4003 31.1348 33.5972 27.3824C34.9577 23.1489 34.0687 18.8789 31.1688 15.9598C28.9924 13.7468 26.9257 12.8809 23.716 12.7673C22.3651 12.7327 21.3048 12.7866 20.6717 12.9501ZM25.6364 18.5883C26.8586 19.1606 27.8359 20.1509 28.392 21.3805C28.7769 22.2137 28.8269 22.5216 28.7557 23.8282C28.6653 25.5139 28.3016 26.3664 27.2317 27.417C23.7679 30.8808 17.8584 28.4696 17.8584 23.5915C17.8603 19.5313 21.9033 16.92 25.6364 18.5883Z" fill="#202020"></path>
<path fill-rule="evenodd" clip-rule="evenodd" d="M18.2239 0.130493C18.1874 0.222859 18.0045 0.900213 17.8237 1.6353C17.6428 2.37038 17.408 3.08045 17.2983 3.19591C17.1886 3.31136 16.5286 3.6308 15.7935 3.90212C14.5235 4.39282 14.1983 4.67184 14.433 5.02592C14.8919 5.37941 15.3705 5.70644 15.8666 6.00539L17.1906 6.80397V8.07209C17.1906 10.4659 17.4427 10.6295 18.984 9.28632C19.373 8.92751 19.785 8.59454 20.2175 8.28953C20.3445 8.21833 21.0873 8.30877 21.8859 8.52622C22.6844 8.74367 23.408 8.88799 23.4984 8.88799C23.8987 8.88799 23.8256 8.34534 23.2637 6.94829L22.6652 5.48005L23.4619 4.24657C24.2431 3.01502 24.4048 2.47044 24.0969 2.28956C24.0257 2.23375 23.2444 2.253 22.3939 2.3242L20.8333 2.47044L19.8192 1.23697C18.9128 0.113174 18.4221 -0.213957 18.2239 0.130493Z" fill="#DB2827"></path>
<path fill-rule="evenodd" clip-rule="evenodd" d="M6.69153 4.84499C6.58376 5.22985 6.4202 5.96879 6.30667 6.4768L6.08922 7.41971L4.5671 8.01817C2.6274 8.74363 2.60816 8.99764 4.42085 10.1022L5.72745 10.8835L5.85445 12.5326C6.03534 14.7994 6.0719 14.7994 8.21172 12.9867L9.02763 12.2786L10.5536 12.7019C12.0218 13.1002 12.4779 13.0868 12.4779 12.6654C12.3306 12.1141 12.1428 11.5745 11.916 11.0509L11.3387 9.65575L12.2027 8.27602C13.3284 6.48065 13.238 6.33633 11.0481 6.48065L9.4529 6.59034L8.49075 5.37418C7.35541 3.97521 6.94553 3.86552 6.69153 4.84499Z" fill="#DB2827"></path>
<path fill-rule="evenodd" clip-rule="evenodd" d="M33.1083 4.98931C32.4367 5.44344 31.8036 5.80521 31.7112 5.80521C31.1729 5.65638 30.6462 5.46859 30.1352 5.24331C28.2302 4.50053 28.1031 4.62754 28.7016 6.69424L29.1557 8.21829L28.159 9.43059C27.6144 10.1003 27.1622 10.7353 27.1622 10.8623C27.1622 11.2067 28.0127 11.4242 29.3366 11.4242H30.5874L31.4226 12.7847C32.5464 14.58 32.7465 14.5608 33.4893 12.6038C34.0666 11.099 34.0877 11.0643 34.8363 10.8719C37.8093 10.0906 37.8459 10.0367 36.0698 8.62239L34.7997 7.60828L34.8363 5.93991C34.8728 3.90208 34.7939 3.85012 33.1083 4.98931Z" fill="#DB2827"></path>
<path fill-rule="evenodd" clip-rule="evenodd" d="M3.86292 15.8135C3.80904 15.9406 3.5916 16.6121 3.35683 17.301L2.93926 18.5711L1.48834 19.0406C0.564671 19.3504 0.0431855 19.6391 0.00277515 19.8219C-0.0376352 20.0047 0.364544 20.4203 1.12657 20.963L2.32348 21.8328V23.2298C2.32348 24.7692 2.43124 25.2061 2.77569 25.2061C2.9027 25.2061 3.55504 24.8077 4.22662 24.317L5.44085 23.4299L6.72821 23.8629C8.88535 24.5884 8.95848 24.5152 8.23301 22.3389L7.79812 21.0534L8.68715 19.8757C9.17592 19.2234 9.57425 18.5711 9.57425 18.4248C9.57425 18.0265 8.84879 17.8995 7.50755 18.04L6.36644 18.1496L5.43123 16.8835C4.53451 15.6519 4.04573 15.3248 3.86292 15.8135Z" fill="#DB2827"></path>
<path fill-rule="evenodd" clip-rule="evenodd" d="M9.24875 28.6505C8.65029 29.1393 8.06915 29.5568 7.94215 29.5568C7.41565 29.4528 6.8953 29.3199 6.38346 29.1585C4.55153 28.6332 4.44377 28.7602 5.18655 30.646L5.76384 32.1142L4.92869 33.365C3.77411 35.0969 3.85878 35.2508 5.85428 35.1412L7.39372 35.0334L8.39051 36.2842C9.75099 37.9526 9.80487 37.9333 10.4745 35.1777C10.667 34.3618 10.667 34.3618 12.1621 33.8172C13.1243 33.4728 13.6477 33.1649 13.6477 33.0013C13.6477 32.8378 13.0858 32.349 12.3796 31.8775L11.1095 31.0251L11.0191 29.4298C10.9171 27.4536 10.7536 27.3824 9.24875 28.6505Z" fill="#DB2827"></path>
<path d="M51.003 23.1645C49.922 23.1645 48.9507 22.9765 48.089 22.6005C47.243 22.2088 46.5772 21.6762 46.0915 21.0025C45.6058 20.3132 45.3552 19.522 45.3395 18.629H47.619C47.6973 19.3967 48.0107 20.0468 48.559 20.5795C49.123 21.0965 49.9377 21.355 51.003 21.355C52.0213 21.355 52.8203 21.1043 53.4 20.603C53.9953 20.086 54.293 19.428 54.293 18.629C54.293 18.0023 54.1207 17.4932 53.776 17.1015C53.4313 16.7098 53.0005 16.4122 52.4835 16.2085C51.9665 16.0048 51.2693 15.7855 50.392 15.5505C49.311 15.2685 48.4415 14.9865 47.7835 14.7045C47.1412 14.4225 46.585 13.9838 46.115 13.3885C45.6607 12.7775 45.4335 11.9628 45.4335 10.9445C45.4335 10.0515 45.6607 9.26033 46.115 8.571C46.5693 7.88167 47.2038 7.349 48.0185 6.973C48.8488 6.597 49.7967 6.409 50.862 6.409C52.3973 6.409 53.6507 6.79283 54.622 7.5605C55.609 8.32817 56.1652 9.3465 56.2905 10.6155H53.9405C53.8622 9.98883 53.5332 9.4405 52.9535 8.9705C52.3738 8.48483 51.6062 8.242 50.6505 8.242C49.7575 8.242 49.029 8.477 48.465 8.947C47.901 9.40133 47.619 10.0437 47.619 10.874C47.619 11.4693 47.7835 11.955 48.1125 12.331C48.4572 12.707 48.8723 12.9968 49.358 13.2005C49.8593 13.3885 50.5565 13.6078 51.4495 13.8585C52.5305 14.1562 53.4 14.4538 54.058 14.7515C54.716 15.0335 55.28 15.48 55.75 16.091C56.22 16.6863 56.455 17.501 56.455 18.535C56.455 19.334 56.2435 20.086 55.8205 20.791C55.3975 21.496 54.7708 22.0678 53.9405 22.5065C53.1102 22.9452 52.131 23.1645 51.003 23.1645ZM58.803 16.514C58.803 15.198 59.0693 14.0465 59.602 13.0595C60.1346 12.0568 60.8631 11.2813 61.7875 10.733C62.7275 10.1847 63.7693 9.9105 64.913 9.9105C66.041 9.9105 67.0201 10.1533 67.8505 10.639C68.6808 11.1247 69.2996 11.7357 69.707 12.472V10.122H71.869V23H69.707V20.603C69.284 21.355 68.6495 21.9817 67.8035 22.483C66.9731 22.9687 66.0018 23.2115 64.8895 23.2115C63.7458 23.2115 62.7118 22.9295 61.7875 22.3655C60.8631 21.8015 60.1346 21.0103 59.602 19.992C59.0693 18.9737 58.803 17.8143 58.803 16.514ZM69.707 16.5375C69.707 15.5662 69.5111 14.7202 69.1195 13.9995C68.7278 13.2788 68.1951 12.7305 67.5215 12.3545C66.8635 11.9628 66.135 11.767 65.336 11.767C64.537 11.767 63.8085 11.955 63.1505 12.331C62.4925 12.707 61.9676 13.2553 61.576 13.976C61.1843 14.6967 60.9885 15.5427 60.9885 16.514C60.9885 17.501 61.1843 18.3627 61.576 19.099C61.9676 19.8197 62.4925 20.3758 63.1505 20.7675C63.8085 21.1435 64.537 21.3315 65.336 21.3315C66.135 21.3315 66.8635 21.1435 67.5215 20.7675C68.1951 20.3758 68.7278 19.8197 69.1195 19.099C69.5111 18.3627 69.707 17.5088 69.707 16.5375ZM77.6213 5.61V23H75.4828V5.61H77.6213ZM86.8825 23.2115C85.6762 23.2115 84.5795 22.9373 83.5925 22.389C82.6212 21.8407 81.8535 21.0652 81.2895 20.0625C80.7412 19.0442 80.467 17.8692 80.467 16.5375C80.467 15.2215 80.749 14.0622 81.313 13.0595C81.8927 12.0412 82.676 11.2657 83.663 10.733C84.65 10.1847 85.7545 9.9105 86.9765 9.9105C88.1985 9.9105 89.303 10.1847 90.29 10.733C91.277 11.2657 92.0525 12.0333 92.6165 13.036C93.1962 14.0387 93.486 15.2058 93.486 16.5375C93.486 17.8692 93.1884 19.0442 92.593 20.0625C92.0134 21.0652 91.2222 21.8407 90.2195 22.389C89.2169 22.9373 88.1045 23.2115 86.8825 23.2115ZM86.8825 21.3315C87.6502 21.3315 88.3709 21.1513 89.0445 20.791C89.7182 20.4307 90.2587 19.8902 90.666 19.1695C91.089 18.4488 91.3005 17.5715 91.3005 16.5375C91.3005 15.5035 91.0969 14.6262 90.6895 13.9055C90.2822 13.1848 89.7495 12.6522 89.0915 12.3075C88.4335 11.9472 87.7207 11.767 86.953 11.767C86.1697 11.767 85.449 11.9472 84.791 12.3075C84.1487 12.6522 83.6317 13.1848 83.24 13.9055C82.8484 14.6262 82.6525 15.5035 82.6525 16.5375C82.6525 17.5872 82.8405 18.4723 83.2165 19.193C83.6082 19.9137 84.1252 20.4542 84.7675 20.8145C85.4099 21.1592 86.1149 21.3315 86.8825 21.3315ZM102.572 9.887C104.139 9.887 105.408 10.3648 106.379 11.3205C107.351 12.2605 107.836 13.6235 107.836 15.4095V23H105.721V15.715C105.721 14.4303 105.4 13.4512 104.758 12.7775C104.115 12.0882 103.238 11.7435 102.126 11.7435C100.998 11.7435 100.097 12.096 99.4233 12.801C98.7653 13.506 98.4363 14.5322 98.4363 15.8795V23H96.2978V10.122H98.4363V11.955C98.8593 11.297 99.4311 10.7878 100.152 10.4275C100.888 10.0672 101.695 9.887 102.572 9.887ZM114.432 9.2525V13.365H119.954V15.9735H114.432V20.321H120.659V23H111.142V6.5735H120.659V9.2525H114.432ZM129.077 19.9685L132.367 9.981H135.869L131.051 23H127.056L122.262 9.981H125.787L129.077 19.9685ZM149.819 16.2085C149.819 16.6785 149.788 17.1015 149.725 17.4775H140.208C140.286 18.4175 140.615 19.1538 141.195 19.6865C141.774 20.2192 142.487 20.4855 143.333 20.4855C144.555 20.4855 145.425 19.9607 145.942 18.911H149.49C149.114 20.1643 148.394 21.1983 147.328 22.013C146.263 22.812 144.955 23.2115 143.404 23.2115C142.15 23.2115 141.022 22.9373 140.02 22.389C139.033 21.825 138.257 21.0338 137.693 20.0155C137.145 18.9972 136.871 17.8222 136.871 16.4905C136.871 15.1432 137.145 13.9603 137.693 12.942C138.242 11.9237 139.009 11.1403 139.996 10.592C140.983 10.0437 142.119 9.7695 143.404 9.7695C144.641 9.7695 145.746 10.0358 146.717 10.5685C147.704 11.1012 148.464 11.861 148.997 12.848C149.545 13.8193 149.819 14.9395 149.819 16.2085ZM146.412 15.2685C146.396 14.4225 146.091 13.7488 145.495 13.2475C144.9 12.7305 144.171 12.472 143.31 12.472C142.495 12.472 141.806 12.7227 141.242 13.224C140.693 13.7097 140.357 14.3912 140.231 15.2685H146.412ZM155.511 12.002C155.934 11.3127 156.482 10.7722 157.156 10.3805C157.845 9.98883 158.628 9.793 159.506 9.793V13.2475H158.636C157.602 13.2475 156.819 13.4903 156.286 13.976C155.769 14.4617 155.511 15.3077 155.511 16.514V23H152.221V9.981H155.511V12.002ZM174.177 9.981L166.116 29.157H162.615L165.435 22.671L160.218 9.981H163.907L167.268 19.0755L170.675 9.981H174.177ZM193.998 9.981L190.191 23H186.643L184.269 13.9055L181.896 23H178.324L174.493 9.981H177.83L180.133 19.898L182.624 9.981H186.102L188.546 19.8745L190.849 9.981H193.998ZM203.11 9.793C204.097 9.793 204.975 10.0123 205.742 10.451C206.51 10.874 207.105 11.5085 207.528 12.3545C207.967 13.1848 208.186 14.1875 208.186 15.3625V23H204.896V15.809C204.896 14.775 204.638 13.9838 204.121 13.4355C203.604 12.8715 202.899 12.5895 202.006 12.5895C201.097 12.5895 200.376 12.8715 199.844 13.4355C199.327 13.9838 199.068 14.775 199.068 15.809V23H195.778V5.61H199.068V11.6025C199.491 11.0385 200.055 10.5998 200.76 10.2865C201.465 9.9575 202.249 9.793 203.11 9.793ZM223.417 16.2085C223.417 16.6785 223.386 17.1015 223.323 17.4775H213.806C213.884 18.4175 214.213 19.1538 214.793 19.6865C215.373 20.2192 216.085 20.4855 216.931 20.4855C218.153 20.4855 219.023 19.9607 219.54 18.911H223.088C222.712 20.1643 221.992 21.1983 220.926 22.013C219.861 22.812 218.553 23.2115 217.002 23.2115C215.749 23.2115 214.621 22.9373 213.618 22.389C212.631 21.825 211.855 21.0338 211.291 20.0155C210.743 18.9972 210.469 17.8222 210.469 16.4905C210.469 15.1432 210.743 13.9603 211.291 12.942C211.84 11.9237 212.607 11.1403 213.594 10.592C214.581 10.0437 215.717 9.7695 217.002 9.7695C218.24 9.7695 219.344 10.0358 220.315 10.5685C221.302 11.1012 222.062 11.861 222.595 12.848C223.143 13.8193 223.417 14.9395 223.417 16.2085ZM220.01 15.2685C219.994 14.4225 219.689 13.7488 219.093 13.2475C218.498 12.7305 217.77 12.472 216.908 12.472C216.093 12.472 215.404 12.7227 214.84 13.224C214.292 13.7097 213.955 14.3912 213.829 15.2685H220.01ZM229.109 12.002C229.532 11.3127 230.08 10.7722 230.754 10.3805C231.443 9.98883 232.226 9.793 233.104 9.793V13.2475H232.234C231.2 13.2475 230.417 13.4903 229.884 13.976C229.367 14.4617 229.109 15.3077 229.109 16.514V23H225.819V9.981H229.109V12.002ZM247.422 16.2085C247.422 16.6785 247.391 17.1015 247.328 17.4775H237.811C237.889 18.4175 238.218 19.1538 238.798 19.6865C239.377 20.2192 240.09 20.4855 240.936 20.4855C242.158 20.4855 243.028 19.9607 243.545 18.911H247.093C246.717 20.1643 245.997 21.1983 244.931 22.013C243.866 22.812 242.558 23.2115 241.007 23.2115C239.753 23.2115 238.625 22.9373 237.623 22.389C236.636 21.825 235.86 21.0338 235.296 20.0155C234.748 18.9972 234.474 17.8222 234.474 16.4905C234.474 15.1432 234.748 13.9603 235.296 12.942C235.845 11.9237 236.612 11.1403 237.599 10.592C238.586 10.0437 239.722 9.7695 241.007 9.7695C242.244 9.7695 243.349 10.0358 244.32 10.5685C245.307 11.1012 246.067 11.861 246.6 12.848C247.148 13.8193 247.422 14.9395 247.422 16.2085ZM244.015 15.2685C243.999 14.4225 243.694 13.7488 243.098 13.2475C242.503 12.7305 241.774 12.472 240.913 12.472C240.098 12.472 239.409 12.7227 238.845 13.224C238.296 13.7097 237.96 14.3912 237.834 15.2685H244.015ZM250.693 23.141C250.286 23.141 249.941 23 249.659 22.718C249.377 22.436 249.236 22.0913 249.236 21.684C249.236 21.2767 249.377 20.932 249.659 20.65C249.941 20.368 250.286 20.227 250.693 20.227C251.085 20.227 251.414 20.368 251.68 20.65C251.962 20.932 252.103 21.2767 252.103 21.684C252.103 22.0913 251.962 22.436 251.68 22.718C251.414 23 251.085 23.141 250.693 23.141ZM254.147 16.5375C254.147 15.2058 254.413 14.0465 254.946 13.0595C255.478 12.0568 256.215 11.2813 257.155 10.733C258.11 10.1847 259.199 9.9105 260.421 9.9105C262.004 9.9105 263.304 10.2943 264.322 11.062C265.356 11.8297 266.038 12.895 266.367 14.258H264.064C263.844 13.4747 263.414 12.8558 262.771 12.4015C262.145 11.9472 261.361 11.72 260.421 11.72C259.199 11.72 258.212 12.143 257.46 12.989C256.708 13.8193 256.332 15.0022 256.332 16.5375C256.332 18.0885 256.708 19.287 257.46 20.133C258.212 20.979 259.199 21.402 260.421 21.402C261.361 21.402 262.145 21.1827 262.771 20.744C263.398 20.3053 263.829 19.6787 264.064 18.864H266.367C266.022 20.18 265.333 21.2375 264.299 22.0365C263.265 22.8198 261.972 23.2115 260.421 23.2115C259.199 23.2115 258.11 22.9373 257.155 22.389C256.215 21.8407 255.478 21.0652 254.946 20.0625C254.413 19.0598 254.147 17.8848 254.147 16.5375ZM274.837 23.2115C273.63 23.2115 272.534 22.9373 271.547 22.389C270.575 21.8407 269.808 21.0652 269.244 20.0625C268.695 19.0442 268.421 17.8692 268.421 16.5375C268.421 15.2215 268.703 14.0622 269.267 13.0595C269.847 12.0412 270.63 11.2657 271.617 10.733C272.604 10.1847 273.709 9.9105 274.931 9.9105C276.153 9.9105 277.257 10.1847 278.244 10.733C279.231 11.2657 280.007 12.0333 280.571 13.036C281.15 14.0387 281.44 15.2058 281.44 16.5375C281.44 17.8692 281.142 19.0442 280.547 20.0625C279.967 21.0652 279.176 21.8407 278.174 22.389C277.171 22.9373 276.059 23.2115 274.837 23.2115ZM274.837 21.3315C275.604 21.3315 276.325 21.1513 276.999 20.791C277.672 20.4307 278.213 19.8902 278.62 19.1695C279.043 18.4488 279.255 17.5715 279.255 16.5375C279.255 15.5035 279.051 14.6262 278.644 13.9055C278.236 13.1848 277.704 12.6522 277.046 12.3075C276.388 11.9472 275.675 11.767 274.907 11.767C274.124 11.767 273.403 11.9472 272.745 12.3075C272.103 12.6522 271.586 13.1848 271.194 13.9055C270.802 14.6262 270.607 15.5035 270.607 16.5375C270.607 17.5872 270.795 18.4723 271.171 19.193C271.562 19.9137 272.079 20.4542 272.722 20.8145C273.364 21.1592 274.069 21.3315 274.837 21.3315ZM299.738 9.887C300.741 9.887 301.634 10.0985 302.417 10.5215C303.201 10.9288 303.82 11.5477 304.274 12.378C304.728 13.2083 304.955 14.2188 304.955 15.4095V23H302.84V15.715C302.84 14.4303 302.519 13.4512 301.877 12.7775C301.25 12.0882 300.396 11.7435 299.315 11.7435C298.203 11.7435 297.318 12.1038 296.66 12.8245C296.002 13.5295 295.673 14.5557 295.673 15.903V23H293.558V15.715C293.558 14.4303 293.237 13.4512 292.594 12.7775C291.968 12.0882 291.114 11.7435 290.033 11.7435C288.921 11.7435 288.035 12.1038 287.377 12.8245C286.719 13.5295 286.39 14.5557 286.39 15.903V23H284.252V10.122H286.39V11.9785C286.813 11.3048 287.377 10.7878 288.082 10.4275C288.803 10.0672 289.594 9.887 290.456 9.887C291.537 9.887 292.493 10.1298 293.323 10.6155C294.153 11.1012 294.772 11.814 295.179 12.754C295.54 11.8453 296.135 11.1403 296.965 10.639C297.796 10.1377 298.72 9.887 299.738 9.887Z" fill="#202020"></path>
<path d="M53.602 34.098C53.602 34.91 53.322 35.5867 52.762 36.128C52.2113 36.66 51.3667 36.926 50.228 36.926H48.352V41H47.078V31.242H50.228C51.3293 31.242 52.1647 31.508 52.734 32.04C53.3127 32.572 53.602 33.258 53.602 34.098ZM50.228 35.876C50.9373 35.876 51.46 35.722 51.796 35.414C52.132 35.106 52.3 34.6673 52.3 34.098C52.3 32.894 51.6093 32.292 50.228 32.292H48.352V35.876H50.228ZM56.4594 34.574C56.6834 34.1353 57.0008 33.7947 57.4114 33.552C57.8314 33.3093 58.3401 33.188 58.9374 33.188V34.504H58.6014C57.1734 34.504 56.4594 35.2787 56.4594 36.828V41H55.1854V33.328H56.4594V34.574ZM63.7541 41.126C63.0354 41.126 62.3821 40.9627 61.7941 40.636C61.2154 40.3093 60.7581 39.8473 60.4221 39.25C60.0954 38.6433 59.9321 37.9433 59.9321 37.15C59.9321 36.366 60.1001 35.6753 60.4361 35.078C60.7814 34.4713 61.2481 34.0093 61.8361 33.692C62.4241 33.3653 63.0821 33.202 63.8101 33.202C64.5381 33.202 65.1961 33.3653 65.7841 33.692C66.3721 34.0093 66.8341 34.4667 67.1701 35.064C67.5154 35.6613 67.6881 36.3567 67.6881 37.15C67.6881 37.9433 67.5107 38.6433 67.1561 39.25C66.8107 39.8473 66.3394 40.3093 65.7421 40.636C65.1447 40.9627 64.4821 41.126 63.7541 41.126ZM63.7541 40.006C64.2114 40.006 64.6407 39.8987 65.0421 39.684C65.4434 39.4693 65.7654 39.1473 66.0081 38.718C66.2601 38.2887 66.3861 37.766 66.3861 37.15C66.3861 36.534 66.2647 36.0113 66.0221 35.582C65.7794 35.1527 65.4621 34.8353 65.0701 34.63C64.6781 34.4153 64.2534 34.308 63.7961 34.308C63.3294 34.308 62.9001 34.4153 62.5081 34.63C62.1254 34.8353 61.8174 35.1527 61.5841 35.582C61.3507 36.0113 61.2341 36.534 61.2341 37.15C61.2341 37.7753 61.3461 38.3027 61.5701 38.732C61.8034 39.1613 62.1114 39.4833 62.4941 39.698C62.8767 39.9033 63.2967 40.006 63.7541 40.006ZM72.4852 34.378H70.8752V41H69.6012V34.378H68.6072V33.328H69.6012V32.782C69.6012 31.9233 69.8205 31.298 70.2592 30.906C70.7072 30.5047 71.4212 30.304 72.4012 30.304V31.368C71.8412 31.368 71.4445 31.48 71.2112 31.704C70.9872 31.9187 70.8752 32.278 70.8752 32.782V33.328H72.4852V34.378ZM80.9706 36.87C80.9706 37.1127 80.9566 37.3693 80.9286 37.64H74.7966C74.8432 38.396 75.0999 38.9887 75.5666 39.418C76.0426 39.838 76.6166 40.048 77.2886 40.048C77.8392 40.048 78.2966 39.922 78.6606 39.67C79.0339 39.4087 79.2952 39.0633 79.4446 38.634H80.8166C80.6112 39.3713 80.2006 39.9733 79.5846 40.44C78.9686 40.8973 78.2032 41.126 77.2886 41.126C76.5606 41.126 75.9072 40.9627 75.3286 40.636C74.7592 40.3093 74.3112 39.8473 73.9846 39.25C73.6579 38.6433 73.4946 37.9433 73.4946 37.15C73.4946 36.3567 73.6532 35.6613 73.9706 35.064C74.2879 34.4667 74.7312 34.0093 75.3006 33.692C75.8792 33.3653 76.5419 33.202 77.2886 33.202C78.0166 33.202 78.6606 33.3607 79.2206 33.678C79.7806 33.9953 80.2099 34.434 80.5086 34.994C80.8166 35.5447 80.9706 36.17 80.9706 36.87ZM79.6546 36.604C79.6546 36.1187 79.5472 35.7033 79.3326 35.358C79.1179 35.0033 78.8239 34.7373 78.4506 34.56C78.0866 34.3733 77.6806 34.28 77.2326 34.28C76.5886 34.28 76.0379 34.4853 75.5806 34.896C75.1326 35.3067 74.8759 35.876 74.8106 36.604H79.6546ZM85.3682 41.126C84.7802 41.126 84.2529 41.028 83.7862 40.832C83.3196 40.6267 82.9509 40.3467 82.6802 39.992C82.4096 39.628 82.2602 39.2127 82.2322 38.746H83.5482C83.5856 39.1287 83.7629 39.4413 84.0802 39.684C84.4069 39.9267 84.8316 40.048 85.3542 40.048C85.8396 40.048 86.2222 39.9407 86.5022 39.726C86.7822 39.5113 86.9222 39.2407 86.9222 38.914C86.9222 38.578 86.7729 38.3307 86.4742 38.172C86.1756 38.004 85.7136 37.8407 85.0882 37.682C84.5189 37.5327 84.0522 37.3833 83.6882 37.234C83.3336 37.0753 83.0256 36.8467 82.7642 36.548C82.5122 36.24 82.3862 35.8387 82.3862 35.344C82.3862 34.952 82.5029 34.5927 82.7362 34.266C82.9696 33.9393 83.3009 33.6827 83.7302 33.496C84.1596 33.3 84.6496 33.202 85.2002 33.202C86.0496 33.202 86.7356 33.4167 87.2582 33.846C87.7809 34.2753 88.0609 34.8633 88.0982 35.61H86.8242C86.7962 35.2087 86.6329 34.8867 86.3342 34.644C86.0449 34.4013 85.6529 34.28 85.1582 34.28C84.7009 34.28 84.3369 34.378 84.0662 34.574C83.7956 34.77 83.6602 35.0267 83.6602 35.344C83.6602 35.596 83.7396 35.806 83.8982 35.974C84.0662 36.1327 84.2716 36.2633 84.5142 36.366C84.7662 36.4593 85.1116 36.5667 85.5502 36.688C86.1009 36.8373 86.5489 36.9867 86.8942 37.136C87.2396 37.276 87.5336 37.4907 87.7762 37.78C88.0282 38.0693 88.1589 38.4473 88.1682 38.914C88.1682 39.334 88.0516 39.712 87.8182 40.048C87.5849 40.384 87.2536 40.65 86.8242 40.846C86.4042 41.0327 85.9189 41.126 85.3682 41.126ZM92.6827 41.126C92.0947 41.126 91.5673 41.028 91.1007 40.832C90.634 40.6267 90.2653 40.3467 89.9947 39.992C89.724 39.628 89.5747 39.2127 89.5467 38.746H90.8627C90.9 39.1287 91.0773 39.4413 91.3947 39.684C91.7213 39.9267 92.146 40.048 92.6687 40.048C93.154 40.048 93.5367 39.9407 93.8167 39.726C94.0967 39.5113 94.2367 39.2407 94.2367 38.914C94.2367 38.578 94.0873 38.3307 93.7887 38.172C93.49 38.004 93.028 37.8407 92.4027 37.682C91.8333 37.5327 91.3667 37.3833 91.0027 37.234C90.648 37.0753 90.34 36.8467 90.0787 36.548C89.8267 36.24 89.7007 35.8387 89.7007 35.344C89.7007 34.952 89.8173 34.5927 90.0507 34.266C90.284 33.9393 90.6153 33.6827 91.0447 33.496C91.474 33.3 91.964 33.202 92.5147 33.202C93.364 33.202 94.05 33.4167 94.5727 33.846C95.0953 34.2753 95.3753 34.8633 95.4127 35.61H94.1387C94.1107 35.2087 93.9473 34.8867 93.6487 34.644C93.3593 34.4013 92.9673 34.28 92.4727 34.28C92.0153 34.28 91.6513 34.378 91.3807 34.574C91.11 34.77 90.9747 35.0267 90.9747 35.344C90.9747 35.596 91.054 35.806 91.2127 35.974C91.3807 36.1327 91.586 36.2633 91.8287 36.366C92.0807 36.4593 92.426 36.5667 92.8647 36.688C93.4153 36.8373 93.8633 36.9867 94.2087 37.136C94.554 37.276 94.848 37.4907 95.0907 37.78C95.3427 38.0693 95.4733 38.4473 95.4827 38.914C95.4827 39.334 95.366 39.712 95.1327 40.048C94.8993 40.384 94.568 40.65 94.1387 40.846C93.7187 41.0327 93.2333 41.126 92.6827 41.126ZM97.9391 32.082C97.6965 32.082 97.4911 31.998 97.3231 31.83C97.1551 31.662 97.0711 31.4567 97.0711 31.214C97.0711 30.9713 97.1551 30.766 97.3231 30.598C97.4911 30.43 97.6965 30.346 97.9391 30.346C98.1725 30.346 98.3685 30.43 98.5271 30.598C98.6951 30.766 98.7791 30.9713 98.7791 31.214C98.7791 31.4567 98.6951 31.662 98.5271 31.83C98.3685 31.998 98.1725 32.082 97.9391 32.082ZM98.5551 33.328V41H97.2811V33.328H98.5551ZM104.072 41.126C103.354 41.126 102.7 40.9627 102.112 40.636C101.534 40.3093 101.076 39.8473 100.74 39.25C100.414 38.6433 100.25 37.9433 100.25 37.15C100.25 36.366 100.418 35.6753 100.754 35.078C101.1 34.4713 101.566 34.0093 102.154 33.692C102.742 33.3653 103.4 33.202 104.128 33.202C104.856 33.202 105.514 33.3653 106.102 33.692C106.69 34.0093 107.152 34.4667 107.488 35.064C107.834 35.6613 108.006 36.3567 108.006 37.15C108.006 37.9433 107.829 38.6433 107.474 39.25C107.129 39.8473 106.658 40.3093 106.06 40.636C105.463 40.9627 104.8 41.126 104.072 41.126ZM104.072 40.006C104.53 40.006 104.959 39.8987 105.36 39.684C105.762 39.4693 106.084 39.1473 106.326 38.718C106.578 38.2887 106.704 37.766 106.704 37.15C106.704 36.534 106.583 36.0113 106.34 35.582C106.098 35.1527 105.78 34.8353 105.388 34.63C104.996 34.4153 104.572 34.308 104.114 34.308C103.648 34.308 103.218 34.4153 102.826 34.63C102.444 34.8353 102.136 35.1527 101.902 35.582C101.669 36.0113 101.552 36.534 101.552 37.15C101.552 37.7753 101.664 38.3027 101.888 38.732C102.122 39.1613 102.43 39.4833 102.812 39.698C103.195 39.9033 103.615 40.006 104.072 40.006ZM113.42 33.188C114.353 33.188 115.109 33.4727 115.688 34.042C116.266 34.602 116.556 35.414 116.556 36.478V41H115.296V36.66C115.296 35.8947 115.104 35.3113 114.722 34.91C114.339 34.4993 113.816 34.294 113.154 34.294C112.482 34.294 111.945 34.504 111.544 34.924C111.152 35.344 110.956 35.9553 110.956 36.758V41H109.682V33.328H110.956V34.42C111.208 34.028 111.548 33.7247 111.978 33.51C112.416 33.2953 112.897 33.188 113.42 33.188ZM118.161 37.136C118.161 36.352 118.319 35.666 118.637 35.078C118.954 34.4807 119.388 34.0187 119.939 33.692C120.499 33.3653 121.119 33.202 121.801 33.202C122.473 33.202 123.056 33.3467 123.551 33.636C124.045 33.9253 124.414 34.2893 124.657 34.728V33.328H125.945V41H124.657V39.572C124.405 40.02 124.027 40.3933 123.523 40.692C123.028 40.9813 122.449 41.126 121.787 41.126C121.105 41.126 120.489 40.958 119.939 40.622C119.388 40.286 118.954 39.8147 118.637 39.208C118.319 38.6013 118.161 37.9107 118.161 37.136ZM124.657 37.15C124.657 36.5713 124.54 36.0673 124.307 35.638C124.073 35.2087 123.756 34.882 123.355 34.658C122.963 34.4247 122.529 34.308 122.053 34.308C121.577 34.308 121.143 34.42 120.751 34.644C120.359 34.868 120.046 35.1947 119.813 35.624C119.579 36.0533 119.463 36.5573 119.463 37.136C119.463 37.724 119.579 38.2373 119.813 38.676C120.046 39.1053 120.359 39.4367 120.751 39.67C121.143 39.894 121.577 40.006 122.053 40.006C122.529 40.006 122.963 39.894 123.355 39.67C123.756 39.4367 124.073 39.1053 124.307 38.676C124.54 38.2373 124.657 37.7287 124.657 37.15ZM129.372 30.64V41H128.098V30.64H129.372ZM142.793 31.242V41H141.519V36.576H136.549V41H135.275V31.242H136.549V35.526H141.519V31.242H142.793ZM144.493 37.136C144.493 36.352 144.651 35.666 144.969 35.078C145.286 34.4807 145.72 34.0187 146.271 33.692C146.831 33.3653 147.451 33.202 148.133 33.202C148.805 33.202 149.388 33.3467 149.883 33.636C150.377 33.9253 150.746 34.2893 150.989 34.728V33.328H152.277V41H150.989V39.572C150.737 40.02 150.359 40.3933 149.855 40.692C149.36 40.9813 148.781 41.126 148.119 41.126C147.437 41.126 146.821 40.958 146.271 40.622C145.72 40.286 145.286 39.8147 144.969 39.208C144.651 38.6013 144.493 37.9107 144.493 37.136ZM150.989 37.15C150.989 36.5713 150.872 36.0673 150.639 35.638C150.405 35.2087 150.088 34.882 149.687 34.658C149.295 34.4247 148.861 34.308 148.385 34.308C147.909 34.308 147.475 34.42 147.083 34.644C146.691 34.868 146.378 35.1947 146.145 35.624C145.911 36.0533 145.795 36.5573 145.795 37.136C145.795 37.724 145.911 38.2373 146.145 38.676C146.378 39.1053 146.691 39.4367 147.083 39.67C147.475 39.894 147.909 40.006 148.385 40.006C148.861 40.006 149.295 39.894 149.687 39.67C150.088 39.4367 150.405 39.1053 150.639 38.676C150.872 38.2373 150.989 37.7287 150.989 37.15ZM155.088 32.082C154.845 32.082 154.64 31.998 154.472 31.83C154.304 31.662 154.22 31.4567 154.22 31.214C154.22 30.9713 154.304 30.766 154.472 30.598C154.64 30.43 154.845 30.346 155.088 30.346C155.321 30.346 155.517 30.43 155.676 30.598C155.844 30.766 155.928 30.9713 155.928 31.214C155.928 31.4567 155.844 31.662 155.676 31.83C155.517 31.998 155.321 32.082 155.088 32.082ZM155.704 33.328V41H154.43V33.328H155.704ZM159.149 34.574C159.373 34.1353 159.69 33.7947 160.101 33.552C160.521 33.3093 161.03 33.188 161.627 33.188V34.504H161.291C159.863 34.504 159.149 35.2787 159.149 36.828V41H157.875V33.328H159.149V34.574ZM166.354 37.136C166.354 36.352 166.513 35.666 166.83 35.078C167.147 34.4807 167.581 34.0187 168.132 33.692C168.692 33.3653 169.313 33.202 169.994 33.202C170.666 33.202 171.249 33.3467 171.744 33.636C172.239 33.9253 172.607 34.2893 172.85 34.728V33.328H174.138V41H172.85V39.572C172.598 40.02 172.22 40.3933 171.716 40.692C171.221 40.9813 170.643 41.126 169.98 41.126C169.299 41.126 168.683 40.958 168.132 40.622C167.581 40.286 167.147 39.8147 166.83 39.208C166.513 38.6013 166.354 37.9107 166.354 37.136ZM172.85 37.15C172.85 36.5713 172.733 36.0673 172.5 35.638C172.267 35.2087 171.949 34.882 171.548 34.658C171.156 34.4247 170.722 34.308 170.246 34.308C169.77 34.308 169.336 34.42 168.944 34.644C168.552 34.868 168.239 35.1947 168.006 35.624C167.773 36.0533 167.656 36.5573 167.656 37.136C167.656 37.724 167.773 38.2373 168.006 38.676C168.239 39.1053 168.552 39.4367 168.944 39.67C169.336 39.894 169.77 40.006 170.246 40.006C170.722 40.006 171.156 39.894 171.548 39.67C171.949 39.4367 172.267 39.1053 172.5 38.676C172.733 38.2373 172.85 37.7287 172.85 37.15ZM180.029 33.188C180.962 33.188 181.718 33.4727 182.297 34.042C182.876 34.602 183.165 35.414 183.165 36.478V41H181.905V36.66C181.905 35.8947 181.714 35.3113 181.331 34.91C180.948 34.4993 180.426 34.294 179.763 34.294C179.091 34.294 178.554 34.504 178.153 34.924C177.761 35.344 177.565 35.9553 177.565 36.758V41H176.291V33.328H177.565V34.42C177.817 34.028 178.158 33.7247 178.587 33.51C179.026 33.2953 179.506 33.188 180.029 33.188ZM184.77 37.136C184.77 36.352 184.929 35.666 185.246 35.078C185.563 34.4807 185.997 34.0187 186.548 33.692C187.108 33.3653 187.733 33.202 188.424 33.202C189.021 33.202 189.577 33.342 190.09 33.622C190.603 33.8927 190.995 34.252 191.266 34.7V30.64H192.554V41H191.266V39.558C191.014 40.0153 190.641 40.3933 190.146 40.692C189.651 40.9813 189.073 41.126 188.41 41.126C187.729 41.126 187.108 40.958 186.548 40.622C185.997 40.286 185.563 39.8147 185.246 39.208C184.929 38.6013 184.77 37.9107 184.77 37.136ZM191.266 37.15C191.266 36.5713 191.149 36.0673 190.916 35.638C190.683 35.2087 190.365 34.882 189.964 34.658C189.572 34.4247 189.138 34.308 188.662 34.308C188.186 34.308 187.752 34.42 187.36 34.644C186.968 34.868 186.655 35.1947 186.422 35.624C186.189 36.0533 186.072 36.5573 186.072 37.136C186.072 37.724 186.189 38.2373 186.422 38.676C186.655 39.1053 186.968 39.4367 187.36 39.67C187.752 39.894 188.186 40.006 188.662 40.006C189.138 40.006 189.572 39.894 189.964 39.67C190.365 39.4367 190.683 39.1053 190.916 38.676C191.149 38.2373 191.266 37.7287 191.266 37.15ZM203.325 35.974C203.68 36.03 204.002 36.1747 204.291 36.408C204.59 36.6413 204.823 36.9307 204.991 37.276C205.169 37.6213 205.257 37.99 205.257 38.382C205.257 38.8767 205.131 39.3247 204.879 39.726C204.627 40.118 204.259 40.4307 203.773 40.664C203.297 40.888 202.733 41 202.079 41H198.439V31.242H201.939C202.602 31.242 203.167 31.354 203.633 31.578C204.1 31.7927 204.45 32.0867 204.683 32.46C204.917 32.8333 205.033 33.2533 205.033 33.72C205.033 34.2987 204.875 34.7793 204.557 35.162C204.249 35.5353 203.839 35.806 203.325 35.974ZM199.713 35.456H201.855C202.453 35.456 202.915 35.316 203.241 35.036C203.568 34.756 203.731 34.3687 203.731 33.874C203.731 33.3793 203.568 32.992 203.241 32.712C202.915 32.432 202.443 32.292 201.827 32.292H199.713V35.456ZM201.967 39.95C202.602 39.95 203.097 39.8007 203.451 39.502C203.806 39.2033 203.983 38.788 203.983 38.256C203.983 37.7147 203.797 37.29 203.423 36.982C203.05 36.6647 202.551 36.506 201.925 36.506H199.713V39.95H201.967ZM214.025 36.87C214.025 37.1127 214.011 37.3693 213.983 37.64H207.851C207.898 38.396 208.155 38.9887 208.621 39.418C209.097 39.838 209.671 40.048 210.343 40.048C210.894 40.048 211.351 39.922 211.715 39.67C212.089 39.4087 212.35 39.0633 212.499 38.634H213.871C213.666 39.3713 213.255 39.9733 212.639 40.44C212.023 40.8973 211.258 41.126 210.343 41.126C209.615 41.126 208.962 40.9627 208.383 40.636C207.814 40.3093 207.366 39.8473 207.039 39.25C206.713 38.6433 206.549 37.9433 206.549 37.15C206.549 36.3567 206.708 35.6613 207.025 35.064C207.343 34.4667 207.786 34.0093 208.355 33.692C208.934 33.3653 209.597 33.202 210.343 33.202C211.071 33.202 211.715 33.3607 212.275 33.678C212.835 33.9953 213.265 34.434 213.563 34.994C213.871 35.5447 214.025 36.17 214.025 36.87ZM212.709 36.604C212.709 36.1187 212.602 35.7033 212.387 35.358C212.173 35.0033 211.879 34.7373 211.505 34.56C211.141 34.3733 210.735 34.28 210.287 34.28C209.643 34.28 209.093 34.4853 208.635 34.896C208.187 35.3067 207.931 35.876 207.865 36.604H212.709ZM215.231 37.136C215.231 36.352 215.39 35.666 215.707 35.078C216.024 34.4807 216.458 34.0187 217.009 33.692C217.569 33.3653 218.19 33.202 218.871 33.202C219.543 33.202 220.126 33.3467 220.621 33.636C221.116 33.9253 221.484 34.2893 221.727 34.728V33.328H223.015V41H221.727V39.572C221.475 40.02 221.097 40.3933 220.593 40.692C220.098 40.9813 219.52 41.126 218.857 41.126C218.176 41.126 217.56 40.958 217.009 40.622C216.458 40.286 216.024 39.8147 215.707 39.208C215.39 38.6013 215.231 37.9107 215.231 37.136ZM221.727 37.15C221.727 36.5713 221.61 36.0673 221.377 35.638C221.144 35.2087 220.826 34.882 220.425 34.658C220.033 34.4247 219.599 34.308 219.123 34.308C218.647 34.308 218.213 34.42 217.821 34.644C217.429 34.868 217.116 35.1947 216.883 35.624C216.65 36.0533 216.533 36.5573 216.533 37.136C216.533 37.724 216.65 38.2373 216.883 38.676C217.116 39.1053 217.429 39.4367 217.821 39.67C218.213 39.894 218.647 40.006 219.123 40.006C219.599 40.006 220.033 39.894 220.425 39.67C220.826 39.4367 221.144 39.1053 221.377 38.676C221.61 38.2373 221.727 37.7287 221.727 37.15ZM231.972 33.328V41H230.698V39.866C230.455 40.258 230.115 40.566 229.676 40.79C229.247 41.0047 228.771 41.112 228.248 41.112C227.651 41.112 227.114 40.9907 226.638 40.748C226.162 40.496 225.784 40.1227 225.504 39.628C225.233 39.1333 225.098 38.5313 225.098 37.822V33.328H226.358V37.654C226.358 38.41 226.549 38.9933 226.932 39.404C227.315 39.8053 227.837 40.006 228.5 40.006C229.181 40.006 229.718 39.796 230.11 39.376C230.502 38.956 230.698 38.3447 230.698 37.542V33.328H231.972ZM235.677 34.378V38.9C235.677 39.2733 235.756 39.5393 235.915 39.698C236.074 39.8473 236.349 39.922 236.741 39.922H237.679V41H236.531C235.822 41 235.29 40.8367 234.935 40.51C234.58 40.1833 234.403 39.6467 234.403 38.9V34.378H233.409V33.328H234.403V31.396H235.677V33.328H237.679V34.378H235.677ZM245.831 33.328L241.211 44.612H239.895L241.407 40.916L238.313 33.328H239.727L242.135 39.544L244.515 33.328H245.831ZM258.516 41H257.242L252.118 33.23V41H250.844V31.228H252.118L257.242 38.984V31.228H258.516V41ZM267.687 36.87C267.687 37.1127 267.673 37.3693 267.645 37.64H261.513C261.56 38.396 261.817 38.9887 262.283 39.418C262.759 39.838 263.333 40.048 264.005 40.048C264.556 40.048 265.013 39.922 265.377 39.67C265.751 39.4087 266.012 39.0633 266.161 38.634H267.533C267.328 39.3713 266.917 39.9733 266.301 40.44C265.685 40.8973 264.92 41.126 264.005 41.126C263.277 41.126 262.624 40.9627 262.045 40.636C261.476 40.3093 261.028 39.8473 260.701 39.25C260.375 38.6433 260.211 37.9433 260.211 37.15C260.211 36.3567 260.37 35.6613 260.687 35.064C261.005 34.4667 261.448 34.0093 262.017 33.692C262.596 33.3653 263.259 33.202 264.005 33.202C264.733 33.202 265.377 33.3607 265.937 33.678C266.497 33.9953 266.927 34.434 267.225 34.994C267.533 35.5447 267.687 36.17 267.687 36.87ZM266.371 36.604C266.371 36.1187 266.264 35.7033 266.049 35.358C265.835 35.0033 265.541 34.7373 265.167 34.56C264.803 34.3733 264.397 34.28 263.949 34.28C263.305 34.28 262.755 34.4853 262.297 34.896C261.849 35.3067 261.593 35.876 261.527 36.604H266.371ZM270.923 34.378V38.9C270.923 39.2733 271.002 39.5393 271.161 39.698C271.32 39.8473 271.595 39.922 271.987 39.922H272.925V41H271.777C271.068 41 270.536 40.8367 270.181 40.51C269.826 40.1833 269.649 39.6467 269.649 38.9V34.378H268.655V33.328H269.649V31.396H270.923V33.328H272.925V34.378H270.923ZM284.689 33.328L282.295 41H280.979L279.131 34.91L277.283 41H275.967L273.559 33.328H274.861L276.625 39.768L278.529 33.328H279.831L281.693 39.782L283.429 33.328H284.689ZM289.299 41.126C288.58 41.126 287.927 40.9627 287.339 40.636C286.76 40.3093 286.303 39.8473 285.967 39.25C285.64 38.6433 285.477 37.9433 285.477 37.15C285.477 36.366 285.645 35.6753 285.981 35.078C286.326 34.4713 286.793 34.0093 287.381 33.692C287.969 33.3653 288.627 33.202 289.355 33.202C290.083 33.202 290.741 33.3653 291.329 33.692C291.917 34.0093 292.379 34.4667 292.715 35.064C293.06 35.6613 293.233 36.3567 293.233 37.15C293.233 37.9433 293.056 38.6433 292.701 39.25C292.356 39.8473 291.884 40.3093 291.287 40.636C290.69 40.9627 290.027 41.126 289.299 41.126ZM289.299 40.006C289.756 40.006 290.186 39.8987 290.587 39.684C290.988 39.4693 291.31 39.1473 291.553 38.718C291.805 38.2887 291.931 37.766 291.931 37.15C291.931 36.534 291.81 36.0113 291.567 35.582C291.324 35.1527 291.007 34.8353 290.615 34.63C290.223 34.4153 289.798 34.308 289.341 34.308C288.874 34.308 288.445 34.4153 288.053 34.63C287.67 34.8353 287.362 35.1527 287.129 35.582C286.896 36.0113 286.779 36.534 286.779 37.15C286.779 37.7753 286.891 38.3027 287.115 38.732C287.348 39.1613 287.656 39.4833 288.039 39.698C288.422 39.9033 288.842 40.006 289.299 40.006ZM296.182 34.574C296.406 34.1353 296.723 33.7947 297.134 33.552C297.554 33.3093 298.063 33.188 298.66 33.188V34.504H298.324C296.896 34.504 296.182 35.2787 296.182 36.828V41H294.908V33.328H296.182V34.574ZM304.415 41L301.405 37.612V41H300.131V30.64H301.405V36.73L304.359 33.328H306.137L302.525 37.15L306.151 41H304.415Z" fill="#202020"></path>
</svg>